HIERARCHY
ROOT Hips
{
	OFFSET 39.759499 -3.023276 98.870697
	CHANNELS 6 Xposition Yposition Zposition Xrotation Yrotation Zrotation
	JOINT spine
	{
		OFFSET 0.000000 -0.477352 8.301041
		CHANNELS 3 Xrotation Yrotation Zrotation
		JOINT spine1
		{
			OFFSET 0.000000 -0.000002 10.456497
			CHANNELS 3 Xrotation Yrotation Zrotation
			JOINT spine2
			{
				OFFSET 0.000000 -0.000002 10.019203
				CHANNELS 3 Xrotation Yrotation Zrotation
				JOINT Neck
				{
					OFFSET 0.000000 -1.226414 25.723503
					CHANNELS 3 Xrotation Yrotation Zrotation
					JOINT Head
					{
						OFFSET 0.000000 -0.000001 7.771744
						CHANNELS 3 Xrotation Yrotation Zrotation
						End Site
						{
							OFFSET 0.000000 6.203937 18.811996
						}
					}
				}
				JOINT RightShoulder
				{
					OFFSET -4.218800 0.587437 10.820000
					CHANNELS 3 Xrotation Yrotation Zrotation
					JOINT RightArm
					{
						OFFSET 0.000000 -0.000002 14.191406
						CHANNELS 3 Xrotation Yrotation Zrotation
						JOINT RightArmRoll
						{
							OFFSET 0.000000 -0.000001 7.164093
							CHANNELS 3 Xrotation Yrotation Zrotation
							JOINT RightForeArm
							{
								OFFSET 0.000000 -0.000003 20.866501
								CHANNELS 3 Xrotation Yrotation Zrotation
								JOINT RightForeArmRoll
								{
									OFFSET 0.000000 -0.000001 8.039215
									CHANNELS 3 Xrotation Yrotation Zrotation
									JOINT RightHand
									{
										OFFSET 0.000000 -0.000003 16.132996
										CHANNELS 3 Xrotation Yrotation Zrotation
										End Site
										{
											OFFSET 0.000000 0.000000 0.100006
										}
									}
								}
							}
						}
					}
				}
				JOINT LeftShoulder
				{
					OFFSET 4.218800 0.587437 10.820000
					CHANNELS 3 Xrotation Yrotation Zrotation
					JOINT LeftArm
					{
						OFFSET 0.000000 -0.000002 14.191406
						CHANNELS 3 Xrotation Yrotation Zrotation
						JOINT LeftArmRoll
						{
							OFFSET 0.000000 -0.000001 7.164093
							CHANNELS 3 Xrotation Yrotation Zrotation
							JOINT LeftForeArm
							{
								OFFSET 0.000000 -0.000003 20.866501
								CHANNELS 3 Xrotation Yrotation Zrotation
								JOINT LeftForeArmRoll
								{
									OFFSET 0.000000 -0.000001 8.039215
									CHANNELS 3 Xrotation Yrotation Zrotation
									JOINT LeftHand
									{
										OFFSET 0.000000 -0.000003 16.132996
										CHANNELS 3 Xrotation Yrotation Zrotation
										End Site
										{
											OFFSET 0.000000 0.000000 0.100006
										}
									}
								}
							}
						}
					}
				}
			}
		}
	}
	JOINT RightUpLeg
	{
		OFFSET -7.357731 1.131810 -1.349213
		CHANNELS 3 Xrotation Yrotation Zrotation
		JOINT RightUpLegRoll
		{
			OFFSET 0.000000 -0.000003 18.916801
			CHANNELS 3 Xrotation Yrotation Zrotation
			JOINT RightLeg
			{
				OFFSET 0.000000 0.000004 -23.425598
				CHANNELS 3 Xrotation Yrotation Zrotation
				JOINT RightLegRoll
				{
					OFFSET 0.000000 -0.000004 23.502296
					CHANNELS 3 Xrotation Yrotation Zrotation
					JOINT RightFoot
					{
						OFFSET 0.000000 -0.000003 19.561707
						CHANNELS 3 Xrotation Yrotation Zrotation
						JOINT RightToeBase
						{
							OFFSET 0.000000 -0.000003 16.352600
							CHANNELS 3 Xrotation Yrotation Zrotation
							End Site
							{
								OFFSET 0.006931 0.912836 7.919434
							}
						}
					}
				}
			}
		}
	}
	JOINT LeftUpLeg
	{
		OFFSET 7.357731 1.131810 -1.349213
		CHANNELS 3 Xrotation Yrotation Zrotation
		JOINT LeftUpLegRoll
		{
			OFFSET 0.000000 -0.000003 18.916901
			CHANNELS 3 Xrotation Yrotation Zrotation
			JOINT LeftLeg
			{
				OFFSET 0.000000 -0.000004 23.425507
				CHANNELS 3 Xrotation Yrotation Zrotation
				JOINT LeftLegRoll
				{
					OFFSET 0.000000 -0.000004 23.719498
					CHANNELS 3 Xrotation Yrotation Zrotation
					JOINT LeftFoot
					{
						OFFSET 0.000000 -0.000003 19.344406
						CHANNELS 3 Xrotation Yrotation Zrotation
						JOINT LeftToeBase
						{
							OFFSET 0.000000 -0.000003 16.352600
							CHANNELS 3 Xrotation Yrotation Zrotation
							End Site
							{
								OFFSET -0.031063 0.912836 7.919434
							}
						}
					}
				}
			}
		}
	}
}
MOTION
Frames: 9
Frame Time: 0.041667
40.013699 -2.339467 98.870689 -2.122390 -1.292513 1.501844 -1.389820 -0.063870 0.048926 1.223262 -0.123943 0.091094 2.868327 -0.122762 0.092582 21.988286 5.983530 -2.292702 -10.877270 -4.895985 -2.034367 -2.236793 -72.401720 -4.045010 -71.015157 -113.708033 -42.381795 0.000002 -0.000002 0.000002 0.047142 -6.066457 -0.005741 0.000005 0.000006 -3.092419 -5.000184 -7.999232 0.000102 3.695545 67.218364 -3.122988 -42.078688 105.630180 26.161149 0.000001 -0.000001 -0.000000 4.755935 11.538309 -0.006060 0.000002 -0.000004 3.004750 -5.000238 7.998722 -0.000161 -0.656505 -174.774337 1.669193 179.999991 -0.000004 -1.059999 174.460189 -4.131680 -0.638380 -0.000002 0.000001 0.061680 68.824039 6.882277 2.169585 25.456947 -7.355615 0.000010 -0.426648 176.550090 1.558275 -0.000005 -0.000004 -1.117180 -8.292078 3.405982 0.906542 -0.000006 0.000004 -0.098192 68.296448 -6.936593 -2.073091 25.456959 7.355613 0.000000 
40.014400 -2.338605 98.907898 -2.117561 -1.295005 1.505960 -1.392442 -0.063868 0.048926 1.218113 -0.124359 0.091304 2.863176 -0.123175 0.092790 22.000859 5.990434 -2.299916 -10.900701 -4.898587 -2.041569 -2.232681 -72.393059 -4.039689 -71.007487 -113.695097 -42.317865 0.000003 -0.000001 0.000002 0.046722 -6.017488 -0.002256 0.000004 0.000006 -3.092579 -5.000182 -7.999231 0.000103 3.663921 67.223890 -3.086848 -42.110015 105.619259 26.167336 0.000001 0.000000 -0.000001 4.761790 11.519375 -0.005126 0.000003 -0.000004 3.004750 -5.000238 7.998722 -0.000161 -0.655103 -174.770348 1.671906 179.999991 -0.000005 -1.059999 174.471650 -4.134752 -0.637843 -0.000002 0.000001 0.061680 68.821498 6.882264 2.169642 25.456952 -7.355616 0.000010 -0.430535 176.553095 1.561775 -0.000005 -0.000005 -1.117180 -8.289815 3.404933 0.906386 -0.000006 0.000004 -0.098177 68.297193 -6.936610 -2.072847 25.456959 7.355614 -0.000000 
40.015305 -2.331057 98.899010 -2.112661 -1.297518 1.510049 -1.395100 -0.063867 0.048926 1.212943 -0.124831 0.091512 2.858006 -0.123646 0.092996 22.014017 5.996979 -2.307145 -10.925028 -4.900694 -2.048818 -2.228107 -72.384610 -4.033889 -70.999366 -113.681682 -42.256205 0.000004 -0.000001 0.000000 0.046312 -5.971418 0.000826 0.000005 0.000005 -3.092713 -5.000187 -7.999232 0.000100 3.631200 67.228944 -3.049546 -42.139812 105.609293 26.173686 0.000002 -0.000001 0.000001 4.767426 11.501538 -0.004317 0.000000 -0.000004 3.004752 -5.000239 7.998721 -0.000160 -0.653694 -174.767342 1.674520 179.999991 -0.000005 -1.059999 174.483507 -4.137812 -0.637275 -0.000002 0.000001 0.061680 68.818876 6.882280 2.169608 25.456952 -7.355616 0.000010 -0.434414 176.556101 1.565317 -0.000005 -0.000004 -1.117180 -8.287431 3.403855 0.906225 -0.000007 0.000004 -0.098164 68.298026 -6.936598 -2.072494 25.456957 7.355613 -0.000000 
40.015301 -2.332379 98.872398 -2.107711 -1.300030 1.514109 -1.397771 -0.063868 0.048926 1.207763 -0.125344 0.091719 2.852827 -0.124156 0.093202 22.027567 6.003282 -2.314391 -10.950152 -4.902440 -2.056109 -2.223240 -72.376557 -4.027794 -70.991115 -113.667865 -42.196475 0.000002 -0.000000 0.000005 0.045915 -5.927389 0.003624 0.000005 0.000006 -3.092819 -5.000184 -7.999230 0.000100 3.597711 67.233595 -3.011421 -42.170223 105.599451 26.181626 -0.000000 0.000000 -0.000000 4.772914 11.484505 -0.003599 0.000003 -0.000004 3.004749 -5.000239 7.998721 -0.000162 -0.652289 -174.764337 1.677064 179.999991 -0.000005 -1.059999 174.495597 -4.140886 -0.636691 -0.000002 0.000001 0.061680 68.816335 6.882266 2.169562 25.456948 -7.355614 0.000010 -0.438297 176.558109 1.568885 -0.000005 -0.000004 -1.117180 -8.284957 3.402748 0.906059 -0.000006 0.000004 -0.098153 68.298668 -6.936610 -2.072255 25.456950 7.355613 -0.000001 
40.017696 -2.338367 98.885300 -2.102725 -1.302553 1.518160 -1.400470 -0.063870 0.048926 1.202563 -0.125879 0.091926 2.847626 -0.124689 0.093406 22.041418 6.009431 -2.321649 -10.975578 -4.903995 -2.063414 -2.218178 -72.368504 -4.021495 -70.982529 -113.653993 -42.137496 0.000002 -0.000001 0.000002 0.045526 -5.884508 0.006262 0.000006 0.000007 -3.092921 -5.000184 -7.999230 0.000099 3.563780 67.238158 -2.972831 -42.198807 105.590497 26.188424 -0.000000 -0.000000 0.000000 4.778316 11.467869 -0.002926 0.000001 -0.000004 3.004749 -5.000239 7.998722 -0.000161 -0.650884 -174.760335 1.679557 179.999991 -0.000005 -1.059999 174.507823 -4.142958 -0.636995 -0.000002 0.000002 0.061680 68.813705 6.882245 2.169623 25.456950 -7.355615 0.000010 -0.442181 176.561100 1.572464 -0.000005 -0.000004 -1.117180 -8.282444 3.401632 0.905892 -0.000006 0.000004 -0.098143 68.299392 -6.936590 -2.071907 25.456959 7.355613 -0.000000 
40.020397 -2.336737 98.867996 -2.097736 -1.305085 1.522200 -1.403160 -0.063872 0.048926 1.197363 -0.126421 0.092132 2.842436 -0.125227 0.093610 22.055369 6.015536 -2.328914 -11.001097 -4.905488 -2.070715 -2.213086 -72.360568 -4.015180 -70.974073 -113.639991 -42.078859 0.000003 -0.000001 0.000001 0.045135 -5.841928 0.008860 0.000006 0.000006 -3.093011 -5.000185 -7.999232 0.000101 3.529719 67.242618 -2.934099 -42.229847 105.580805 26.197868 0.000001 -0.000001 0.000001 4.783704 11.451433 -0.002271 0.000004 -0.000004 3.004751 -5.000239 7.998722 -0.000160 -0.649477 -174.757343 1.682052 179.999991 -0.000005 -1.059999 174.520076 -4.146035 -0.636395 -0.000002 0.000001 0.061680 68.811069 6.882260 2.169588 25.456948 -7.355614 0.000011 -0.446064 176.563108 1.576062 -0.000005 -0.000005 -1.117180 -8.279918 3.400505 0.905724 -0.000006 0.000004 -0.098133 68.300027 -6.936601 -2.071568 25.456959 7.355613 0.000000 
40.024502 -2.334657 98.870995 -2.092763 -1.307598 1.526262 -1.405848 -0.063874 0.048926 1.192172 -0.126952 0.092338 2.837247 -0.125755 0.093815 22.069118 6.021725 -2.336175 -11.026520 -4.907079 -2.078031 -2.208085 -72.352515 -4.008948 -70.965399 -113.626016 -42.019611 0.000004 -0.000001 0.000003 0.044747 -5.798757 0.011542 0.000005 0.000006 -3.093119 -5.000185 -7.999229 0.000101 3.495852 67.247071 -2.895575 -42.260638 105.571051 26.206763 0.000000 0.000000 -0.000001 4.789122 11.434698 -0.001581 0.000002 -0.000004 3.004750 -5.000241 7.998722 -0.000162 -0.648067 -174.754324 1.684566 179.999991 -0.000005 -1.059999 174.532288 -4.149097 -0.635798 -0.000002 0.000002 0.061680 68.808425 6.882240 2.169650 25.456953 -7.355614 0.000010 -0.449941 176.566114 1.579641 -0.000005 -0.000005 -1.117180 -8.277425 3.399388 0.905558 -0.000006 0.000004 -0.098123 68.300758 -6.936583 -2.071317 25.456953 7.355613 -0.000000 
40.025101 -2.335638 98.874901 -2.087826 -1.310120 1.530333 -1.408522 -0.063875 0.048926 1.186993 -0.127453 0.092545 2.832068 -0.126252 0.094020 22.082575 6.028080 -2.343430 -11.051343 -4.908904 -2.085309 -2.203322 -72.344366 -4.002954 -70.956752 -113.612356 -41.958832 0.000003 -0.000002 0.000000 0.044345 -5.754148 0.014424 0.000005 0.000006 -3.093232 -5.000185 -7.999230 0.000100 3.462521 67.251900 -2.857621 -42.290913 105.561161 26.214387 0.000000 0.000000 0.000001 4.794643 11.417367 -0.000814 0.000003 -0.000004 3.004752 -5.000239 7.998722 -0.000160 -0.646664 -174.751332 1.687131 179.999991 -0.000005 -1.059999 174.544337 -4.151179 -0.635116 -0.000002 0.000001 0.061680 68.805891 6.882225 2.169605 25.456953 -7.355614 0.000010 -0.453829 176.569105 1.583200 -0.000005 -0.000004 -1.117180 -8.274981 3.398292 0.905394 -0.000006 0.000004 -0.098111 68.301502 -6.936602 -2.070975 25.456957 7.355613 -0.000000 
40.027199 -2.335969 98.871902 -2.082946 -1.312612 1.534424 -1.411160 -0.063874 0.048926 1.181833 -0.127909 0.092753 2.826907 -0.126707 0.094226 22.095541 6.034716 -2.350673 -11.075475 -4.911123 -2.092566 -2.198921 -72.335911 -3.997331 -70.948371 -113.598989 -41.896189 0.000000 -0.000001 0.000003 0.043933 -5.707207 0.017630 0.000004 0.000007 -3.093371 -5.000183 -7.999232 0.000100 3.430045 67.257003 -2.820575 -42.320651 105.551162 26.220079 0.000000 0.000000 -0.000000 4.800346 11.399230 0.000051 0.000003 -0.000004 3.004749 -5.000239 7.998722 -0.000162 -0.645259 -174.747344 1.689775 179.999991 -0.000005 -1.059999 174.556044 -4.154238 -0.634552 -0.000002 0.000001 0.061680 68.803357 6.882212 2.169661 25.456950 -7.355614 0.000011 -0.457710 176.571113 1.586726 -0.000004 -0.000004 -1.117180 -8.272629 3.397214 0.905233 -0.000006 0.000004 -0.098098 68.302247 -6.936621 -2.070633 25.456957 7.355613 -0.000001 
